<?xml version="1.0" encoding="UTF-8"?> <svg xmlns="http://www.w3.org/2000/svg" width="570" height="574" viewBox="0 0 570 574" fill="none"> <path d="M187.254 226.547C232.676 166.216 240.843 104.304 245.868 66.2058C245.91 65.888 245.952 65.5719 245.993 65.2574C256.62 99.7188 275.73 153.32 339.241 201.136C366.556 221.701 396.925 230.064 425.088 234.306C438.097 236.265 450.645 237.346 462.202 238.341C463.153 238.423 464.097 238.505 465.034 238.586C476.792 239.605 487.435 240.601 496.427 242.443C495.814 242.778 495.195 243.117 494.572 243.458C460.412 262.151 411 289.191 369.649 344.114C331.98 394.147 328.38 447.798 325.787 486.441C325.227 494.787 324.714 502.432 323.915 509.19C313.216 474.674 292.481 419.987 228.992 372.187C201.699 351.639 168.996 339.109 138.488 330.702C117.318 324.868 97.165 321.01 80.6116 317.841C73.8785 316.552 67.7409 315.377 62.3726 314.23C69.3834 310.451 77.0132 306.883 85.0774 303.113C116.204 288.558 153.802 270.978 187.254 226.547Z" stroke="black"></path> </svg> 