<?xml version="1.0" encoding="UTF-8"?> <!-- Generator: Adobe Illustrator 23.0.1, SVG Export Plug-In . SVG Version: 6.00 Build 0) --> <svg xmlns="http://www.w3.org/2000/svg" xmlns:xlink="http://www.w3.org/1999/xlink" id="Capa_1" x="0px" y="0px" viewBox="0 0 512 512" style="enable-background:new 0 0 512 512;" xml:space="preserve"> <style type="text/css"> .st0{fill:#A8A1FF;} .st1{fill:#7A70FF;} .st2{fill:#DBD8FF;} </style> <g> <path class="st0" d="M174.9,370.4c-24.8-10.5-47.1-25.5-66.2-44.7L58.5,462.9l78.5-0.8l60.6,49.8l44.3-125.7 C218.8,384.8,196.3,379.5,174.9,370.4L174.9,370.4z"></path> <path class="st0" d="M403.4,325.8c-19.1,19.1-41.4,34.2-66.2,44.7c-21.4,9.1-43.9,14.4-67.1,15.9L314.4,512l60.6-49.8l78.5,0.8 L403.4,325.8z"></path> <path class="st1" d="M256,356.8c98.5,0,178.4-79.9,178.4-178.4C434.4,79.9,354.5,0,256,0C157.5,0,77.6,79.9,77.6,178.4 C77.6,276.9,157.5,356.8,256,356.8z"></path> </g> <g> <path class="st2" d="M201.1,97.8l49.5-17.5h32.3v188.3h-37.1v-149l-35.5,10L201.1,97.8z"></path> </g> </svg> 