<?xml version="1.0" encoding="UTF-8"?> <!-- Generator: Adobe Illustrator 23.0.1, SVG Export Plug-In . SVG Version: 6.00 Build 0) --> <svg xmlns="http://www.w3.org/2000/svg" xmlns:xlink="http://www.w3.org/1999/xlink" id="Capa_1" x="0px" y="0px" viewBox="0 0 512 512" style="enable-background:new 0 0 512 512;" xml:space="preserve"> <style type="text/css"> .st0{fill:#A8A1FF;} .st1{fill:#7A70FF;} .st2{fill:#DBD8FF;} </style> <g> <path class="st0" d="M121.3,376.8v-220c0-52.4,42.6-95,95-95h143.6c-4.7-31.3-31.7-55.3-64.3-55.3H65c-35.8,0-65,29.2-65,65v220 c0,35.8,29.2,65,65,65h20.3v63.8l38.6-21.4C122.2,391.7,121.3,384.3,121.3,376.8L121.3,376.8z"></path> <path class="st1" d="M447,91.8H216.3c-35.8,0-65,29.2-65,65v220c0,35.8,29.2,65,65,65h95.4l114.9,63.8v-63.8H447 c35.8,0,65-29.2,65-65v-220C512,120.9,482.8,91.8,447,91.8z M236.5,185.3h190.2v30H236.5V185.3z M357.6,347.3H236.5v-30h121.2 V347.3z M426.9,281.3H236.5v-30h190.4V281.3z"></path> </g> <rect x="236.3" y="185.3" class="st2" width="190.2" height="30"></rect> <rect x="236.3" y="251.3" class="st2" width="190.2" height="30"></rect> <rect x="236.3" y="317.3" class="st2" width="123.3" height="30"></rect> </svg> 