<svg width="185" height="45" viewBox="0 0 185 45" fill="none" xmlns="http://www.w3.org/2000/svg">
<path d="M19.488 16.728H13.8V15.96C14.712 15.96 15.32 15.832 15.624 15.576C15.88 15.336 16.008 14.984 16.008 14.52V1.53601C14.952 4.12801 13.896 6.68801 12.84 9.21601C11.784 11.728 10.728 14.28 9.67195 16.872H8.92795C7.91995 14.328 6.91195 11.808 5.90395 9.31201C4.89595 6.80001 3.87995 4.26401 2.85595 1.70401V14.52C2.85595 15.064 2.98395 15.44 3.23995 15.648C3.55995 15.856 4.11995 15.96 4.91995 15.96V16.728H-4.68493e-05V15.96C0.767953 15.96 1.27195 15.872 1.51195 15.696C1.76795 15.504 1.89595 15.208 1.89595 14.808C1.89595 14.776 1.89595 14.744 1.89595 14.712C1.91195 14.664 1.91995 14.6 1.91995 14.52V2.08801C1.91995 1.62401 1.79195 1.29601 1.53595 1.10401C1.27995 0.896013 0.775953 0.792013 0.0239532 0.792013V1.33514e-05H3.93595C4.89595 2.40001 5.84795 4.77601 6.79195 7.12801C7.73595 9.48001 8.68795 11.864 9.64795 14.28C10.608 11.864 11.552 9.48001 12.48 7.12801C13.424 4.77601 14.376 2.40001 15.336 1.33514e-05H19.488V0.792013C18.576 0.792013 18.016 0.896013 17.808 1.10401C17.616 1.32801 17.52 1.63201 17.52 2.01601V14.52C17.52 15 17.632 15.352 17.856 15.576C18.16 15.832 18.704 15.96 19.488 15.96V16.728ZM31.5386 13.728C31.6186 13.792 31.7066 13.864 31.8026 13.944C31.8986 14.008 31.9866 14.072 32.0666 14.136C31.6666 14.696 31.2426 15.184 30.7946 15.6C30.3466 16.016 29.8666 16.352 29.3546 16.608C28.6506 16.976 27.9306 17.16 27.1946 17.16C25.7066 17.16 24.4746 16.648 23.4986 15.624C22.4586 14.488 21.9386 13.008 21.9386 11.184C21.9386 9.39201 22.4026 7.93601 23.3306 6.81601C24.2746 5.68001 25.5226 5.11201 27.0746 5.11201C28.5626 5.11201 29.7386 5.58401 30.6026 6.52801C31.5146 7.52001 31.9706 8.86401 31.9706 10.56C30.5626 10.608 29.1626 10.664 27.7706 10.728C26.3946 10.776 25.0026 10.824 23.5946 10.872V11.184C23.5946 12.624 23.9226 13.776 24.5786 14.64C25.2666 15.616 26.2506 16.104 27.5306 16.104C28.2506 16.104 28.9466 15.912 29.6186 15.528C30.2426 15.16 30.8826 14.56 31.5386 13.728ZM23.6426 9.96001C24.7466 9.91201 25.8506 9.87201 26.9546 9.84001C28.0586 9.79201 29.1626 9.74401 30.2666 9.69601C30.2666 8.67201 29.9866 7.80801 29.4266 7.10401C28.8506 6.36801 28.0666 6.00001 27.0746 6.00001C26.0666 6.00001 25.2426 6.39201 24.6026 7.17601C24.0266 7.91201 23.7066 8.84001 23.6426 9.96001ZM47.6184 16.752H42.1224V16.008C42.8104 16.008 43.3144 15.896 43.6344 15.672C43.9064 15.448 44.0424 15.104 44.0424 14.64V11.136H37.9464V14.64C37.9464 15.152 38.0584 15.496 38.2824 15.672C38.6024 15.896 39.1464 16.008 39.9144 16.008V16.752H34.4424V16.008C35.2744 16.008 35.8424 15.88 36.1464 15.624C36.3384 15.432 36.4344 15.104 36.4344 14.64V7.22401C36.4344 6.77601 36.3304 6.47201 36.1224 6.31201C35.8184 6.08801 35.2664 5.97601 34.4664 5.97601V5.23201H39.8184V5.97601C39.0664 5.97601 38.5624 6.08001 38.3064 6.28801C38.0664 6.51201 37.9464 6.82401 37.9464 7.22401V10.272H44.0424V7.22401C44.0424 6.82401 43.9064 6.51201 43.6344 6.28801C43.3304 6.08001 42.8264 5.97601 42.1224 5.97601V5.23201H47.4744V5.97601C46.7224 5.97601 46.1944 6.08001 45.8904 6.28801C45.6824 6.48001 45.5784 6.79201 45.5784 7.22401V14.64C45.5784 15.168 45.6824 15.512 45.8904 15.672C46.2104 15.896 46.7864 16.008 47.6184 16.008V16.752ZM59.2886 13.728C59.3686 13.792 59.4566 13.864 59.5526 13.944C59.6486 14.008 59.7366 14.072 59.8166 14.136C59.4166 14.696 58.9926 15.184 58.5446 15.6C58.0966 16.016 57.6166 16.352 57.1046 16.608C56.4006 16.976 55.6806 17.16 54.9446 17.16C53.4566 17.16 52.2246 16.648 51.2486 15.624C50.2086 14.488 49.6886 13.008 49.6886 11.184C49.6886 9.39201 50.1526 7.93601 51.0806 6.81601C52.0246 5.68001 53.2726 5.11201 54.8246 5.11201C56.3126 5.11201 57.4886 5.58401 58.3526 6.52801C59.2646 7.52001 59.7206 8.86401 59.7206 10.56C58.3126 10.608 56.9126 10.664 55.5206 10.728C54.1446 10.776 52.7526 10.824 51.3446 10.872V11.184C51.3446 12.624 51.6726 13.776 52.3286 14.64C53.0166 15.616 54.0006 16.104 55.2806 16.104C56.0006 16.104 56.6966 15.912 57.3686 15.528C57.9926 15.16 58.6326 14.56 59.2886 13.728ZM51.3926 9.96001C52.4966 9.91201 53.6006 9.87201 54.7046 9.84001C55.8086 9.79201 56.9126 9.74401 58.0166 9.69601C58.0166 8.67201 57.7366 7.80801 57.1766 7.10401C56.6006 6.36801 55.8166 6.00001 54.8246 6.00001C53.8166 6.00001 52.9926 6.39201 52.3526 7.17601C51.7766 7.91201 51.4566 8.84001 51.3926 9.96001ZM76.6404 19.992H75.9924C75.7204 18.824 75.3204 18 74.7924 17.52C74.7764 17.504 74.7684 17.464 74.7684 17.4C74.2084 16.888 73.5844 16.632 72.8964 16.632H65.5044C65.2324 16.632 65.0004 16.664 64.8084 16.728C64.3764 16.856 64.0084 17.16 63.7044 17.64C63.3364 18.168 63.0804 18.952 62.9364 19.992H62.3124C62.3444 19.272 62.3844 18.576 62.4324 17.904C62.4964 17.248 62.5444 16.56 62.5764 15.84C63.9044 14.976 64.8644 13.72 65.4564 12.072C65.5204 11.912 65.5764 11.752 65.6244 11.592C65.6724 11.416 65.7204 11.24 65.7684 11.064C65.9284 10.456 66.0484 9.81601 66.1284 9.14401C66.2084 8.47201 66.2484 7.72801 66.2484 6.91201C66.2484 6.56001 66.0324 6.29601 65.6004 6.12001C65.4564 6.05601 64.8564 6.02401 63.8004 6.02401V5.23201H76.4244V6.02401C75.4164 6.02401 74.8084 6.08001 74.6004 6.19201C74.2324 6.36801 74.0484 6.67201 74.0484 7.10401V15.048C74.0484 15.448 74.2244 15.752 74.5764 15.96C74.8164 16.104 75.4084 16.176 76.3524 16.176L76.6404 19.992ZM72.5604 15.216V6.02401H67.2804C67.2804 8.15201 67.1124 9.87201 66.7764 11.184C66.6964 11.408 66.6084 11.624 66.5124 11.832C66.4324 12.04 66.3364 12.24 66.2244 12.432C65.8084 13.52 65.2884 14.448 64.6644 15.216H72.5604ZM94.0385 14.28C94.1025 14.328 94.1665 14.384 94.2305 14.448C94.2945 14.496 94.3665 14.536 94.4465 14.568C94.2865 15.16 94.0065 15.68 93.6065 16.128C93.1905 16.608 92.7505 16.864 92.2865 16.896C92.2065 16.896 92.1345 16.896 92.0705 16.896C92.0225 16.896 91.9585 16.888 91.8785 16.872C91.4465 16.776 91.0545 16.504 90.7025 16.056C90.6705 16.024 90.6305 15.976 90.5825 15.912C90.5505 15.864 90.5185 15.808 90.4865 15.744C90.2785 15.44 90.0385 14.968 89.7665 14.328C89.3825 13.544 89.0465 12.92 88.7585 12.456C88.3745 11.768 88.0785 11.424 87.8705 11.424H87.1745V14.952C87.1745 15.176 87.2065 15.344 87.2705 15.456C87.3025 15.52 87.3345 15.576 87.3665 15.624C87.4145 15.672 87.4785 15.712 87.5585 15.744C87.8625 15.936 88.4225 16.032 89.2385 16.032V16.752H83.5985V16.032C84.3985 16.032 84.9505 15.928 85.2545 15.72C85.5265 15.544 85.6625 15.288 85.6625 14.952V11.424H84.9905C84.7985 11.424 84.5105 11.76 84.1265 12.432C83.9825 12.672 83.8225 12.952 83.6465 13.272C83.4865 13.576 83.3025 13.928 83.0945 14.328C82.7425 15.08 82.4305 15.624 82.1585 15.96V16.056C81.8225 16.504 81.4385 16.776 81.0065 16.872C80.9265 16.888 80.8545 16.896 80.7905 16.896C80.7265 16.896 80.6545 16.896 80.5745 16.896C80.1105 16.864 79.6785 16.608 79.2785 16.128C78.9105 15.712 78.6305 15.176 78.4385 14.52C78.5185 14.488 78.5905 14.448 78.6545 14.4C78.7185 14.352 78.7825 14.312 78.8465 14.28C79.0705 14.808 79.3105 15.176 79.5665 15.384C79.8225 15.608 80.1025 15.72 80.4065 15.72C80.6785 15.72 80.9505 15.536 81.2225 15.168C81.2865 15.088 81.3505 15.008 81.4145 14.928C81.4945 14.832 81.5745 14.72 81.6545 14.592C81.6865 14.512 81.7265 14.424 81.7745 14.328C81.8225 14.232 81.8625 14.136 81.8945 14.04C82.2625 13.32 82.6705 12.656 83.1185 12.048C83.2945 11.824 83.4705 11.624 83.6465 11.448C83.8385 11.272 84.0465 11.12 84.2705 10.992C83.9025 10.752 83.5185 10.36 83.1185 9.81601C83.0545 9.68801 82.9665 9.52001 82.8545 9.31201C82.7585 9.08801 82.6305 8.81601 82.4705 8.49601C82.2625 8.01601 82.0705 7.67201 81.8945 7.46401C81.6545 7.22401 81.4305 7.10401 81.2225 7.10401C81.0145 7.10401 80.7985 7.21601 80.5745 7.44001C80.3345 7.71201 80.0305 7.84801 79.6625 7.84801C79.6465 7.84801 79.6385 7.81601 79.6385 7.75201C79.3985 7.72001 79.1585 7.57601 78.9185 7.32001C78.6785 7.06401 78.5585 6.80001 78.5585 6.52801C78.5585 5.64801 79.0465 5.18401 80.0225 5.13601C80.1025 5.13601 80.1825 5.13601 80.2625 5.13601C80.3425 5.13601 80.4225 5.14401 80.5025 5.16001C81.1265 5.25601 81.6785 5.62401 82.1585 6.26401C82.5905 6.80801 83.0145 7.58401 83.4305 8.59201C83.5905 8.92801 83.7185 9.21601 83.8145 9.45601C83.9265 9.69601 84.0225 9.88801 84.1025 10.032C84.4065 10.416 84.7185 10.608 85.0385 10.608H85.6625V7.20001C85.6625 6.75201 85.5265 6.43201 85.2545 6.24001C84.9345 6.01601 84.3825 5.90401 83.5985 5.90401V5.23201H89.2385V5.90401C88.7265 5.90401 88.3265 5.94401 88.0385 6.02401C87.7505 6.08801 87.5425 6.19201 87.4145 6.33601C87.2545 6.54401 87.1745 6.83201 87.1745 7.20001V10.608H87.8465C88.1345 10.608 88.4385 10.416 88.7585 10.032C88.9185 9.84001 89.1505 9.36001 89.4545 8.59201C89.8545 7.56801 90.2785 6.79201 90.7265 6.26401V6.16801C91.1585 5.59201 91.7025 5.25601 92.3585 5.16001C92.4385 5.14401 92.5185 5.13601 92.5985 5.13601C92.6785 5.13601 92.7585 5.13601 92.8385 5.13601C93.8305 5.18401 94.3265 5.64801 94.3265 6.52801C94.3265 6.80001 94.2065 7.06401 93.9665 7.32001C93.7265 7.57601 93.4865 7.72001 93.2465 7.75201C93.2465 7.81601 93.2385 7.84801 93.2225 7.84801C92.8545 7.84801 92.5425 7.70401 92.2865 7.41601C92.0785 7.20801 91.8625 7.10401 91.6385 7.10401C91.4145 7.10401 91.1985 7.22401 90.9905 7.46401C90.7825 7.65601 90.5825 8.00001 90.3905 8.49601C90.2465 8.80001 90.1185 9.06401 90.0065 9.28801C89.9105 9.49601 89.8225 9.67201 89.7425 9.81601C89.3265 10.376 88.9425 10.768 88.5905 10.992C89.0385 11.248 89.4305 11.6 89.7665 12.048C90.1185 12.496 90.4305 13.024 90.7025 13.632C90.7505 13.712 90.7985 13.8 90.8465 13.896C90.8945 13.976 90.9345 14.056 90.9665 14.136C91.0945 14.36 91.2145 14.56 91.3265 14.736C91.4545 14.896 91.5585 15.04 91.6385 15.168C91.9105 15.536 92.1825 15.72 92.4545 15.72C92.7745 15.72 93.0625 15.608 93.3185 15.384C93.5745 15.176 93.8145 14.808 94.0385 14.28ZM106.164 13.728C106.244 13.792 106.332 13.864 106.428 13.944C106.524 14.008 106.612 14.072 106.692 14.136C106.292 14.696 105.868 15.184 105.42 15.6C104.972 16.016 104.492 16.352 103.98 16.608C103.276 16.976 102.556 17.16 101.82 17.16C100.332 17.16 99.0996 16.648 98.1236 15.624C97.0836 14.488 96.5636 13.008 96.5636 11.184C96.5636 9.39201 97.0276 7.93601 97.9556 6.81601C98.8996 5.68001 100.148 5.11201 101.7 5.11201C103.188 5.11201 104.364 5.58401 105.228 6.52801C106.14 7.52001 106.596 8.86401 106.596 10.56C105.188 10.608 103.788 10.664 102.396 10.728C101.02 10.776 99.6276 10.824 98.2196 10.872V11.184C98.2196 12.624 98.5476 13.776 99.2036 14.64C99.8916 15.616 100.876 16.104 102.156 16.104C102.876 16.104 103.572 15.912 104.244 15.528C104.868 15.16 105.508 14.56 106.164 13.728ZM98.2676 9.96001C99.3716 9.91201 100.476 9.87201 101.58 9.84001C102.684 9.79201 103.788 9.74401 104.892 9.69601C104.892 8.67201 104.612 7.80801 104.052 7.10401C103.476 6.36801 102.692 6.00001 101.7 6.00001C100.692 6.00001 99.8676 6.39201 99.2276 7.17601C98.6516 7.91201 98.3316 8.84001 98.2676 9.96001ZM119.939 10.944C119.939 12.736 119.459 14.184 118.499 15.288C117.571 16.264 116.435 16.752 115.091 16.752C113.843 16.752 112.827 16.432 112.043 15.792V18.24C112.043 18.704 112.171 19.024 112.427 19.2C112.699 19.376 113.091 19.464 113.603 19.464V20.256H109.019V19.464C109.691 19.464 110.131 19.36 110.339 19.152C110.499 18.992 110.579 18.688 110.579 18.24V7.65601C110.579 7.57601 110.571 7.51201 110.555 7.46401C110.555 7.41601 110.547 7.36801 110.531 7.32001C110.515 7.24001 110.491 7.17601 110.459 7.12801C110.443 7.08001 110.419 7.03201 110.387 6.98401C110.211 6.82401 109.795 6.74401 109.139 6.74401C109.123 6.66401 109.107 6.58401 109.091 6.50401C109.075 6.40801 109.059 6.32001 109.043 6.24001C109.555 6.04801 110.059 5.86401 110.555 5.68801C111.051 5.51201 111.547 5.32801 112.043 5.13601V6.12001C112.923 5.48001 113.963 5.16001 115.163 5.16001C116.571 5.16001 117.707 5.67201 118.571 6.69601C118.651 6.77601 118.723 6.84801 118.787 6.91201C118.851 6.97601 118.915 7.04801 118.979 7.12801C119.619 8.15201 119.939 9.42401 119.939 10.944ZM118.331 10.968C118.331 10.248 118.235 9.60801 118.043 9.04801C117.867 8.47201 117.619 7.96801 117.299 7.53601C116.659 6.60801 115.771 6.14401 114.635 6.14401C113.595 6.14401 112.731 6.50401 112.043 7.22401V14.592C112.731 15.36 113.595 15.744 114.635 15.744C115.659 15.744 116.523 15.288 117.227 14.376C117.963 13.496 118.331 12.36 118.331 10.968ZM19.488 40.728H13.8V39.96C14.712 39.96 15.32 39.832 15.624 39.576C15.88 39.336 16.008 38.984 16.008 38.52V25.536C14.952 28.128 13.896 30.688 12.84 33.216C11.784 35.728 10.728 38.28 9.67195 40.872H8.92795C7.91995 38.328 6.91195 35.808 5.90395 33.312C4.89595 30.8 3.87995 28.264 2.85595 25.704V38.52C2.85595 39.064 2.98395 39.44 3.23995 39.648C3.55995 39.856 4.11995 39.96 4.91995 39.96V40.728H-4.68493e-05V39.96C0.767953 39.96 1.27195 39.872 1.51195 39.696C1.76795 39.504 1.89595 39.208 1.89595 38.808C1.89595 38.776 1.89595 38.744 1.89595 38.712C1.91195 38.664 1.91995 38.6 1.91995 38.52V26.088C1.91995 25.624 1.79195 25.296 1.53595 25.104C1.27995 24.896 0.775953 24.792 0.0239532 24.792V24H3.93595C4.89595 26.4 5.84795 28.776 6.79195 31.128C7.73595 33.48 8.68795 35.864 9.64795 38.28C10.608 35.864 11.552 33.48 12.48 31.128C13.424 28.776 14.376 26.4 15.336 24H19.488V24.792C18.576 24.792 18.016 24.896 17.808 25.104C17.616 25.328 17.52 25.632 17.52 26.016V38.52C17.52 39 17.632 39.352 17.856 39.576C18.16 39.832 18.704 39.96 19.488 39.96V40.728ZM32.0426 39.864C31.3386 40.712 30.7146 41.136 30.1706 41.136C29.4666 41.136 29.0426 40.688 28.8986 39.792C27.9066 40.688 26.7066 41.136 25.2986 41.136C24.1946 41.136 23.3626 40.904 22.8026 40.44C22.5146 40.2 22.2906 39.912 22.1306 39.576C21.9706 39.224 21.8906 38.816 21.8906 38.352C21.8906 37.216 22.4906 36.248 23.6906 35.448C23.7866 35.384 23.8826 35.328 23.9786 35.28C24.0746 35.216 24.1786 35.152 24.2906 35.088C25.5546 34.464 27.0826 34.032 28.8746 33.792V32.088C28.8746 31.496 28.6826 30.992 28.2986 30.576C28.1226 30.384 27.9066 30.24 27.6506 30.144C27.3946 30.048 27.1146 29.984 26.8106 29.952H26.4746C26.3466 29.952 26.2426 29.96 26.1626 29.976C25.7146 30.024 25.3386 30.152 25.0346 30.36C24.4586 30.68 24.1706 31.04 24.1706 31.44V31.56C24.1706 32.344 23.8266 32.736 23.1386 32.736L23.1146 32.712C22.5066 32.664 22.2026 32.312 22.2026 31.656C22.2026 30.952 22.6906 30.36 23.6666 29.88V29.808C24.6266 29.36 25.6986 29.136 26.8826 29.136C27.8586 29.136 28.6746 29.4 29.3306 29.928C30.0026 30.552 30.3386 31.4 30.3386 32.472V39C30.3386 39.256 30.3626 39.456 30.4106 39.6C30.4586 39.776 30.5226 39.904 30.6026 39.984C30.6346 40.016 30.6746 40.032 30.7226 40.032C30.9626 40.032 31.3066 39.856 31.7546 39.504L32.0426 39.864ZM28.8746 34.68C27.4986 34.824 26.2586 35.216 25.1546 35.856C24.0666 36.48 23.5226 37.304 23.5226 38.328C23.5226 38.84 23.7226 39.256 24.1226 39.576C24.5386 39.88 25.0586 40.032 25.6826 40.032C26.1306 40.032 26.5226 39.976 26.8586 39.864C27.5466 39.704 28.2186 39.344 28.8746 38.784V34.68ZM44.0956 34.944C44.0956 36.736 43.6156 38.184 42.6556 39.288C41.7276 40.264 40.5916 40.752 39.2476 40.752C37.9996 40.752 36.9836 40.432 36.1996 39.792V42.24C36.1996 42.704 36.3276 43.024 36.5836 43.2C36.8556 43.376 37.2476 43.464 37.7596 43.464V44.256H33.1756V43.464C33.8476 43.464 34.2876 43.36 34.4956 43.152C34.6556 42.992 34.7356 42.688 34.7356 42.24V31.656C34.7356 31.576 34.7276 31.512 34.7116 31.464C34.7116 31.416 34.7036 31.368 34.6876 31.32C34.6716 31.24 34.6476 31.176 34.6156 31.128C34.5996 31.08 34.5756 31.032 34.5436 30.984C34.3676 30.824 33.9516 30.744 33.2956 30.744C33.2796 30.664 33.2636 30.584 33.2476 30.504C33.2316 30.408 33.2156 30.32 33.1996 30.24C33.7116 30.048 34.2156 29.864 34.7116 29.688C35.2076 29.512 35.7036 29.328 36.1996 29.136V30.12C37.0796 29.48 38.1196 29.16 39.3196 29.16C40.7276 29.16 41.8636 29.672 42.7276 30.696C42.8076 30.776 42.8796 30.848 42.9436 30.912C43.0076 30.976 43.0716 31.048 43.1356 31.128C43.7756 32.152 44.0956 33.424 44.0956 34.944ZM42.4876 34.968C42.4876 34.248 42.3916 33.608 42.1996 33.048C42.0236 32.472 41.7756 31.968 41.4556 31.536C40.8156 30.608 39.9276 30.144 38.7916 30.144C37.7516 30.144 36.8876 30.504 36.1996 31.224V38.592C36.8876 39.36 37.7516 39.744 38.7916 39.744C39.8156 39.744 40.6796 39.288 41.3836 38.376C42.1196 37.496 42.4876 36.36 42.4876 34.968ZM58.1473 38.4L58.5313 38.688C58.4193 39.008 58.2993 39.28 58.1713 39.504C58.0433 39.728 57.9153 39.928 57.7873 40.104C57.3873 40.6 56.9233 40.848 56.3953 40.848C56.3633 40.848 56.3313 40.848 56.2993 40.848C56.2673 40.864 56.2353 40.872 56.2033 40.872C56.0593 40.872 55.9153 40.848 55.7713 40.8C55.3553 40.672 55.0353 40.416 54.8113 40.032C54.7313 39.904 54.6033 39.704 54.4273 39.432C54.2673 39.16 54.0753 38.816 53.8513 38.4C53.3553 37.568 52.8753 36.864 52.4113 36.288C52.2673 36.128 52.1393 36 52.0273 35.904C51.7713 35.616 51.5313 35.456 51.3073 35.424C51.2433 35.408 51.1553 35.4 51.0433 35.4H49.6513V38.784C49.6513 39.248 49.7713 39.552 50.0113 39.696C50.3153 39.904 50.9553 40.008 51.9313 40.008V40.728H45.8593V40.008C46.8353 40.008 47.4513 39.904 47.7073 39.696C47.9793 39.504 48.1153 39.2 48.1153 38.784V31.344C48.1153 30.832 47.9793 30.48 47.7073 30.288C47.3873 30.064 46.7713 29.952 45.8593 29.952V29.256H51.9313V29.952C50.9393 29.952 50.3073 30.064 50.0353 30.288C49.7793 30.496 49.6513 30.848 49.6513 31.344V34.56H50.8033C50.8993 34.56 50.9873 34.56 51.0673 34.56C51.1633 34.544 51.2593 34.536 51.3553 34.536C51.8673 34.488 52.2513 34.24 52.5073 33.792C52.5713 33.712 52.6353 33.624 52.6993 33.528C52.7793 33.432 52.8593 33.312 52.9393 33.168C52.9873 33.056 53.0273 32.952 53.0593 32.856C53.1073 32.744 53.1553 32.624 53.2033 32.496C53.4433 31.984 53.6673 31.544 53.8753 31.176C54.0833 30.808 54.2753 30.52 54.4513 30.312C54.4513 30.296 54.4513 30.28 54.4513 30.264C54.4673 30.248 54.4753 30.232 54.4753 30.216C54.9233 29.672 55.4273 29.336 55.9873 29.208C56.0353 29.192 56.0993 29.184 56.1793 29.184H56.5873C57.5473 29.232 58.0273 29.648 58.0273 30.432C58.0273 30.656 57.9713 30.856 57.8593 31.032C57.7473 31.208 57.6113 31.36 57.4513 31.488C57.2753 31.648 57.1073 31.728 56.9473 31.728C56.5953 31.728 56.2833 31.592 56.0113 31.32C55.8353 31.144 55.6353 31.048 55.4113 31.032C55.1873 31.032 54.9633 31.144 54.7393 31.368C54.5473 31.56 54.3473 31.88 54.1393 32.328C54.1073 32.424 54.0673 32.52 54.0193 32.616C53.9713 32.696 53.9313 32.784 53.8993 32.88L53.6833 33.312C53.6513 33.376 53.6193 33.44 53.5873 33.504C53.5553 33.552 53.5233 33.608 53.4913 33.672C53.1873 34.2 52.8033 34.624 52.3393 34.944C53.0113 35.408 53.7713 36.264 54.6193 37.512L55.0513 38.088C55.1313 38.216 55.2273 38.368 55.3393 38.544C55.4513 38.704 55.5953 38.904 55.7713 39.144C56.0433 39.512 56.3233 39.696 56.6113 39.696C57.1233 39.696 57.6353 39.264 58.1473 38.4ZM70.3276 37.728C70.4076 37.792 70.4956 37.864 70.5916 37.944C70.6876 38.008 70.7756 38.072 70.8556 38.136C70.4556 38.696 70.0316 39.184 69.5836 39.6C69.1356 40.016 68.6556 40.352 68.1436 40.608C67.4396 40.976 66.7196 41.16 65.9836 41.16C64.4956 41.16 63.2636 40.648 62.2876 39.624C61.2476 38.488 60.7276 37.008 60.7276 35.184C60.7276 33.392 61.1916 31.936 62.1196 30.816C63.0636 29.68 64.3116 29.112 65.8636 29.112C67.3516 29.112 68.5276 29.584 69.3916 30.528C70.3036 31.52 70.7596 32.864 70.7596 34.56C69.3516 34.608 67.9516 34.664 66.5596 34.728C65.1836 34.776 63.7916 34.824 62.3836 34.872V35.184C62.3836 36.624 62.7116 37.776 63.3676 38.64C64.0556 39.616 65.0396 40.104 66.3196 40.104C67.0396 40.104 67.7356 39.912 68.4076 39.528C69.0316 39.16 69.6716 38.56 70.3276 37.728ZM62.4316 33.96C63.5356 33.912 64.6396 33.872 65.7436 33.84C66.8476 33.792 67.9516 33.744 69.0556 33.696C69.0556 32.672 68.7756 31.808 68.2156 31.104C67.6396 30.368 66.8556 30 65.8636 30C64.8556 30 64.0316 30.392 63.3916 31.176C62.8156 31.912 62.4956 32.84 62.4316 33.96ZM85.0875 29.256C85.3115 29.928 85.5435 30.6 85.7835 31.272C86.0235 31.944 86.2555 32.624 86.4795 33.312C86.3515 33.344 86.2315 33.384 86.1195 33.432C86.0235 33.48 85.9115 33.52 85.7835 33.552C85.3995 32.56 84.9835 31.816 84.5355 31.32C84.4555 31.224 84.3755 31.136 84.2955 31.056C84.2155 30.96 84.1355 30.872 84.0555 30.792C83.7995 30.536 83.5035 30.36 83.1675 30.264C82.8475 30.152 82.5035 30.096 82.1355 30.096C81.8795 30.096 81.6555 30.112 81.4635 30.144C81.2715 30.176 81.1035 30.216 80.9595 30.264C80.6235 30.392 80.4555 30.696 80.4555 31.176V38.88C80.4555 39.104 80.4955 39.28 80.5755 39.408C80.6875 39.568 80.8235 39.68 80.9835 39.744C81.3195 39.904 82.0075 39.984 83.0475 39.984V40.728H76.3275V39.984C77.3035 39.984 77.9435 39.904 78.2475 39.744C78.4555 39.68 78.6235 39.56 78.7515 39.384C78.8635 39.272 78.9195 39.104 78.9195 38.88V31.176C78.9195 30.888 78.8715 30.664 78.7755 30.504C78.6795 30.344 78.4955 30.24 78.2235 30.192C78.0155 30.128 77.6555 30.096 77.1435 30.096C76.9035 30.096 76.6635 30.128 76.4235 30.192C75.9915 30.272 75.5595 30.536 75.1275 30.984C74.9195 31.192 74.6715 31.504 74.3835 31.92C74.1115 32.32 73.7995 32.824 73.4475 33.432C73.3675 33.4 73.2795 33.36 73.1835 33.312C73.0875 33.264 72.9995 33.224 72.9195 33.192C73.1435 32.52 73.3675 31.864 73.5915 31.224C73.8315 30.584 74.0715 29.928 74.3115 29.256H85.0875ZM101.661 40.752H95.709V40.008C96.493 40.008 97.029 39.888 97.317 39.648C97.637 39.36 97.797 38.952 97.797 38.424V30.024H91.725V38.424C91.725 39 91.885 39.424 92.205 39.696C92.429 39.904 92.957 40.008 93.789 40.008V40.752H87.837V40.008C88.749 40.008 89.397 39.864 89.781 39.576C90.069 39.336 90.213 38.944 90.213 38.4V31.44C90.213 30.88 90.069 30.504 89.781 30.312C89.413 30.12 88.765 30.024 87.837 30.024V29.232H101.661V30.024C100.749 30.024 100.101 30.12 99.717 30.312C99.445 30.504 99.309 30.88 99.309 31.44V38.4C99.309 38.944 99.445 39.336 99.717 39.576C100.117 39.864 100.765 40.008 101.661 40.008V40.752ZM118.248 40.752H111.96V40.032C112.776 40.032 113.392 39.896 113.808 39.624C114.176 39.384 114.36 39 114.36 38.472V30.024H109.92V36.12C109.92 37.736 109.608 38.952 108.984 39.768C108.328 40.68 107.28 41.136 105.84 41.136C105.152 41.136 104.608 40.992 104.208 40.704C103.76 40.4 103.536 39.96 103.536 39.384C103.536 38.984 103.648 38.672 103.872 38.448C104.112 38.208 104.408 38.088 104.76 38.088C105.432 38.088 105.84 38.416 105.984 39.072C106.096 39.424 106.248 39.664 106.44 39.792C106.664 39.968 106.904 40.056 107.16 40.056C107.816 40.056 108.328 39.632 108.696 38.784C108.968 38.112 109.104 37.416 109.104 36.696V31.2C109.104 30.752 108.928 30.432 108.576 30.24C108.256 30.096 107.648 30.024 106.752 30.024V29.232H118.248V30.024C117.336 30.024 116.688 30.12 116.304 30.312C116.032 30.504 115.896 30.88 115.896 31.44V38.448C115.896 38.976 116.032 39.36 116.304 39.6C116.704 39.888 117.352 40.032 118.248 40.032V40.752ZM129.976 37.728C130.056 37.792 130.144 37.864 130.24 37.944C130.336 38.008 130.424 38.072 130.504 38.136C130.104 38.696 129.68 39.184 129.232 39.6C128.784 40.016 128.304 40.352 127.792 40.608C127.088 40.976 126.368 41.16 125.632 41.16C124.144 41.16 122.912 40.648 121.936 39.624C120.896 38.488 120.376 37.008 120.376 35.184C120.376 33.392 120.84 31.936 121.768 30.816C122.712 29.68 123.96 29.112 125.512 29.112C127 29.112 128.176 29.584 129.04 30.528C129.952 31.52 130.408 32.864 130.408 34.56C129 34.608 127.6 34.664 126.208 34.728C124.832 34.776 123.44 34.824 122.032 34.872V35.184C122.032 36.624 122.36 37.776 123.016 38.64C123.704 39.616 124.688 40.104 125.968 40.104C126.688 40.104 127.384 39.912 128.056 39.528C128.68 39.16 129.32 38.56 129.976 37.728ZM122.08 33.96C123.184 33.912 124.288 33.872 125.392 33.84C126.496 33.792 127.6 33.744 128.704 33.696C128.704 32.672 128.424 31.808 127.864 31.104C127.288 30.368 126.504 30 125.512 30C124.504 30 123.68 30.392 123.04 31.176C122.464 31.912 122.144 32.84 122.08 33.96ZM146.512 40.728H140.824V40.008C141.688 40.008 142.28 39.824 142.6 39.456C142.68 39.328 142.736 39.2 142.768 39.072C142.816 38.928 142.84 38.744 142.84 38.52V32.592C141.816 33.552 140.8 34.512 139.792 35.472C138.784 36.416 137.768 37.368 136.744 38.328V38.688C136.744 38.992 136.808 39.248 136.936 39.456C137.208 39.824 137.808 40.008 138.736 40.008V40.728H133.048V40.008C133.8 40.008 134.36 39.896 134.728 39.672C135.064 39.464 135.232 39.08 135.232 38.52V31.344C135.232 30.832 135.072 30.48 134.752 30.288C134.432 30.08 133.864 29.976 133.048 29.976V29.256H138.736V29.976C138.064 29.976 137.552 30.08 137.2 30.288C136.896 30.48 136.744 30.832 136.744 31.344V37.248C137.768 36.288 138.784 35.328 139.792 34.368C140.8 33.408 141.816 32.448 142.84 31.488V31.344C142.84 30.832 142.672 30.48 142.336 30.288C141.968 30.08 141.464 29.976 140.824 29.976V29.256H146.512V29.976C145.984 29.976 145.56 30.024 145.24 30.12C144.936 30.2 144.712 30.328 144.568 30.504C144.44 30.68 144.376 30.96 144.376 31.344V38.52C144.376 39.096 144.528 39.488 144.832 39.696C145.136 39.904 145.696 40.008 146.512 40.008V40.728ZM143.248 25.992C143.248 26.792 142.88 27.416 142.144 27.864C142.112 27.896 141.944 28.016 141.64 28.224C141.32 28.416 140.712 28.512 139.816 28.512C138.888 28.512 138.104 28.312 137.464 27.912C137.32 27.848 137.184 27.752 137.056 27.624C136.576 27.192 136.336 26.648 136.336 25.992C136.336 25.416 136.584 25.128 137.08 25.128C137.528 25.128 137.752 25.336 137.752 25.752C137.752 25.992 137.592 26.2 137.272 26.376C137.304 26.696 137.544 26.952 137.992 27.144C138.52 27.384 139.128 27.504 139.816 27.504C140.488 27.504 141.08 27.384 141.592 27.144C141.832 27.064 142 26.96 142.096 26.832C142.208 26.688 142.28 26.536 142.312 26.376C141.992 26.2 141.832 25.992 141.832 25.752C141.832 25.336 142.056 25.128 142.504 25.128C143 25.128 143.248 25.416 143.248 25.992ZM157.447 37.752C157.527 37.816 157.607 37.872 157.687 37.92C157.767 37.968 157.847 38.024 157.927 38.088C156.759 40.072 155.231 41.064 153.343 41.064C151.935 41.064 150.751 40.544 149.791 39.504C148.831 38.432 148.351 37.048 148.351 35.352C148.351 33.544 148.879 32.04 149.935 30.84C150.959 29.64 152.255 29.04 153.823 29.04C154.735 29.04 155.543 29.224 156.247 29.592C156.391 29.672 156.519 29.752 156.631 29.832C156.759 29.912 156.879 30 156.991 30.096C157.087 30.192 157.175 30.288 157.255 30.384C157.335 30.464 157.407 30.56 157.471 30.672C157.615 30.96 157.687 31.232 157.687 31.488C157.687 31.616 157.671 31.728 157.639 31.824C157.607 31.904 157.583 31.984 157.567 32.064C157.423 32.464 157.151 32.664 156.751 32.664C156.335 32.664 155.999 32.392 155.743 31.848C155.711 31.768 155.679 31.688 155.647 31.608C155.631 31.512 155.607 31.424 155.575 31.344C155.431 30.912 155.215 30.576 154.927 30.336C154.559 30.064 154.031 29.928 153.343 29.928C152.431 29.928 151.639 30.424 150.967 31.416C150.295 32.408 149.959 33.6 149.959 34.992C149.959 36.448 150.311 37.648 151.015 38.592C151.703 39.52 152.623 39.984 153.775 39.984C155.087 39.984 156.311 39.24 157.447 37.752ZM169.66 35.04C169.66 36.8 169.188 38.248 168.244 39.384C167.3 40.52 166.092 41.088 164.62 41.088C163.148 41.088 161.94 40.52 160.996 39.384C160.052 38.248 159.58 36.8 159.58 35.04C159.58 33.248 160.052 31.784 160.996 30.648C161.924 29.544 163.132 28.992 164.62 28.992C166.092 28.992 167.3 29.544 168.244 30.648C169.188 31.784 169.66 33.248 169.66 35.04ZM168.076 35.04C168.076 33.536 167.756 32.296 167.116 31.32C166.46 30.328 165.628 29.832 164.62 29.832C163.596 29.832 162.756 30.328 162.1 31.32C161.476 32.28 161.164 33.52 161.164 35.04C161.164 36.528 161.484 37.76 162.124 38.736C162.78 39.728 163.612 40.224 164.62 40.224C165.644 40.224 166.476 39.736 167.116 38.76C167.436 38.248 167.676 37.696 167.836 37.104C167.996 36.496 168.076 35.808 168.076 35.04ZM184.06 37.416C184.06 38.632 183.556 39.512 182.548 40.056C181.764 40.504 180.716 40.728 179.404 40.728H171.484V39.984C172.396 39.984 172.932 39.904 173.092 39.744C173.396 39.584 173.548 39.304 173.548 38.904V31.2C173.548 30.816 173.396 30.528 173.092 30.336C172.788 30.128 172.252 30.024 171.484 30.024V29.28H178.444C178.54 29.28 178.636 29.28 178.732 29.28C178.828 29.28 178.916 29.288 178.996 29.304C181.86 29.352 183.292 30.232 183.292 31.944C183.292 32.616 183.004 33.168 182.428 33.6C181.868 34.032 181.132 34.312 180.22 34.44C182.78 34.728 184.06 35.72 184.06 37.416ZM182.452 37.392C182.452 36.624 182.116 36.008 181.444 35.544C180.852 35.144 180.068 34.944 179.092 34.944H175.084V38.856C175.084 39.304 175.228 39.6 175.516 39.744C175.724 39.888 176.148 39.96 176.788 39.96H179.212C179.756 39.96 180.228 39.904 180.628 39.792C181.028 39.68 181.364 39.528 181.636 39.336C182.18 38.888 182.452 38.24 182.452 37.392ZM181.756 31.896C181.756 31.176 181.412 30.672 180.724 30.384C180.228 30.16 179.62 30.048 178.9 30.048H177.1C176.748 30.048 176.444 30.08 176.188 30.144C175.932 30.192 175.716 30.256 175.54 30.336C175.46 30.368 175.388 30.416 175.324 30.48C175.276 30.528 175.236 30.576 175.204 30.624C175.124 30.816 175.084 31.016 175.084 31.224V34.056H179.02C179.836 34.056 180.492 33.872 180.988 33.504C181.5 33.088 181.756 32.552 181.756 31.896Z" fill="black"/>
</svg>
